# Blender 3.6.0
# www.blender.org
mtllib model.mtl
o Mesh_0
v 0.183374 -0.226984 -0.172347
v 0.090622 -0.224211 -0.165525
v 0.251643 -0.211040 -0.174129
v 0.083751 -0.088665 -0.166389
v -0.051250 -0.259580 -0.083600
v 0.278048 -0.462950 -0.133929
v 0.133247 -0.003811 -0.135346
v 0.244143 -0.049186 -0.171866
v 0.306370 -0.220322 -0.060801
v 0.192732 -0.492328 -0.110277
v 0.431696 -0.495440 -0.149795
v 0.443669 -0.477894 -0.123726
v 0.438936 -0.079461 -0.118829
v 0.446517 -0.169270 -0.102495
v 0.464632 -0.133935 -0.107778
v 0.331970 0.196819 -0.067488
v 0.287325 -0.007759 -0.124391
v 0.344854 0.027025 -0.111638
v 0.042034 0.058806 -0.092570
v 0.188081 -0.333747 -0.108580
v 0.164380 -0.292598 -0.128509
v 0.180389 -0.496167 -0.135827
v 0.250528 -0.298584 -0.145219
v 0.235921 -0.426928 -0.149683
v 0.138505 -0.267129 -0.133200
v 0.431030 -0.510514 -0.120310
v 0.243323 -0.463432 -0.107187
v 0.006122 -0.349095 -0.042459
v 0.199033 -0.299239 -0.085925
v 0.391090 0.233102 -0.078877
v 0.437954 -0.110579 -0.099945
v 0.396751 0.038416 -0.117063
v 0.467393 0.247682 -0.030442
v 0.419836 0.505877 -0.074721
v 0.402275 0.402983 -0.064365
v 0.395057 0.473850 -0.081279
v 0.399592 0.419339 -0.034885
v 0.401079 -0.043743 -0.072808
v 0.583798 0.263156 -0.010717
v 0.590063 0.296021 -0.029903
v 0.006336 0.046045 0.000590
v 0.082435 0.121409 0.019100
v 0.163359 0.174638 -0.020904
v 0.423207 0.479521 -0.042880
v -0.301129 -0.470099 0.003783
v -0.173566 -0.429863 -0.031841
v 0.436755 0.415116 -0.052957
v -0.120025 -0.442946 -0.020317
v -0.029974 -0.105382 -0.103553
v 0.418651 0.430731 0.009568
v -0.005999 -0.361207 0.043986
v -0.283028 -0.412100 0.021399
v -0.142346 -0.385246 0.036527
v 0.473062 0.108891 0.012864
v 0.456973 0.149160 -0.063997
v 0.334509 0.218568 0.032770
v 0.377107 0.386438 0.002726
v -0.133469 -0.374079 -0.030335
v 0.428302 0.271732 -0.069469
v 0.590146 0.298099 0.015001
v 0.485325 0.401949 -0.003633
v 0.425547 0.497395 0.041299
v 0.446680 0.376704 0.048081
v 0.555127 0.285412 0.020926
v -0.329811 -0.459229 0.038763
v -0.590635 -0.431113 0.018578
v -0.103638 -0.418407 0.046376
v 0.218748 -0.298466 0.005886
v 0.469696 0.260531 0.030371
v 0.458533 -0.499441 0.102716
v 0.400565 0.330809 0.053335
v 0.424186 -0.511869 0.093932
v 0.436961 -0.480144 0.092034
v 0.418481 0.036010 0.087903
v 0.450946 -0.170443 0.090691
v -0.047208 -0.093449 0.048223
v 0.144105 0.132510 0.082501
v 0.410339 0.506580 0.068536
v 0.242287 -0.432965 0.124246
v 0.202461 -0.483459 0.098750
v -0.056956 -0.310205 0.068176
v 0.173946 -0.301918 0.120810
v 0.204169 -0.301338 0.089781
v 0.271902 -0.249719 0.090434
v 0.472533 -0.130805 0.095111
v 0.385222 -0.005554 0.105172
v 0.395748 -0.028662 0.080566
v 0.404452 0.222764 0.067075
v 0.286980 -0.464480 0.115462
v 0.069550 -0.206596 0.165292
v -0.091065 -0.293332 0.034381
v 0.380186 -0.104341 0.046640
v 0.108195 -0.315826 0.033654
v 0.322288 -0.110114 0.095293
v 0.171375 -0.471112 0.135131
v 0.322383 0.150287 0.087767
v 0.442545 -0.498900 0.127280
v 0.289378 -0.029773 0.122740
v 0.018322 0.021712 0.097677
v 0.179241 -0.008289 0.136400
v 0.213643 -0.038288 0.167546
v 0.213815 -0.495360 0.136122
v -0.025863 -0.139511 0.125202
v 0.199543 -0.232215 0.169057
v 0.260370 -0.279230 0.145488
v 0.302017 -0.110951 0.154247
v 0.153941 -0.253470 0.145143
v 0.110912 -0.084634 0.173992
vn -0.0290 0.0126 -0.9995
vn 0.5325 0.0365 -0.8456
vn -0.0380 0.0157 -0.9992
vn -0.0750 -0.6520 -0.7545
vn -0.4941 -0.0306 -0.8689
vn -0.0736 -0.0101 -0.9972
vn -0.0805 -0.1331 -0.9878
vn -0.8849 -0.0530 -0.4627
vn 0.3660 -0.0093 -0.9306
vn 0.0485 -0.3138 -0.9483
vn 0.7089 -0.2293 -0.6670
vn -0.1311 0.4072 -0.9039
vn 0.1146 -0.2825 -0.9524
vn -0.4777 -0.0476 -0.8772
vn 0.4802 0.3962 -0.7826
vn -0.4682 0.5314 -0.7060
vn -0.0548 0.2168 -0.9747
vn 0.1085 0.8009 -0.5889
vn -0.3077 -0.4654 -0.8299
vn 0.0675 0.7205 -0.6901
vn -0.0227 -0.8899 -0.4555
vn 0.8694 -0.4755 -0.1343
vn -0.0673 -0.9814 0.1799
vn 0.9129 -0.3714 -0.1693
vn 0.0816 0.9889 0.1238
vn -0.9568 -0.1283 -0.2611
vn 0.0533 -0.1743 -0.9832
vn 0.8431 0.3083 -0.4405
vn -0.0994 -0.0207 -0.9948
vn -0.3033 0.1954 -0.9327
vn 0.0751 0.2520 -0.9648
vn 0.9619 -0.1007 -0.2540
vn 0.0595 0.2554 -0.9650
vn -0.1525 0.2379 -0.9593
vn -0.1262 0.4277 -0.8951
vn -0.7204 -0.0814 0.6887
vn -0.8355 -0.2656 -0.4811
vn 0.3408 -0.2294 -0.9117
vn -0.7486 -0.6541 -0.1082
vn 0.4166 0.1870 0.8896
vn -0.2015 -0.7228 -0.6611
vn -0.2893 0.1761 -0.9409
vn 0.0871 0.0703 0.9937
vn 0.4139 0.7249 0.5506
vn -0.8982 -0.0310 0.4385
vn -0.2541 -0.2519 -0.9338
vn 0.4353 0.1855 -0.8810
vn 0.4457 -0.1646 -0.8799
vn 0.0296 -0.1573 0.9871
vn -0.0540 -0.0123 0.9985
vn -0.7780 -0.1531 0.6093
vn 0.6307 -0.5557 0.5416
vn 0.4246 -0.8870 -0.1817
vn 0.4777 -0.7790 0.4062
vn 0.4886 0.2345 -0.8404
vn -0.4999 0.6271 -0.5974
vn -0.0439 0.0301 -0.9986
vn 0.0923 -0.8022 -0.5899
vn -0.6666 -0.5944 0.4498
vn 0.2812 -0.0007 0.9597
vn -0.1075 -0.4244 0.8991
vn 0.7711 0.3329 0.5427
vn 0.5492 -0.3435 -0.7618
vn 0.3587 -0.1539 -0.9207
vn -0.9936 -0.1084 -0.0303
vn -0.1041 0.1015 -0.9894
vn -0.9132 0.3153 -0.2581
vn -0.2433 -0.9183 -0.3122
vn 0.8414 -0.2213 -0.4931
vn 0.2251 0.0824 -0.9708
vn -0.7023 0.4266 0.5699
vn 0.1096 -0.3655 -0.9243
vn 0.1493 -0.9885 -0.0237
vn -0.2747 0.6973 -0.6621
vn 0.2758 -0.5233 -0.8063
vn 0.2617 0.1524 -0.9530
vn 0.6064 -0.7855 -0.1236
vn 0.9787 0.1966 0.0591
vn -0.0005 -0.6621 -0.7495
vn 0.8753 -0.4755 -0.0881
vn -0.8723 0.4013 -0.2793
vn -0.6076 0.7661 -0.2097
vn -0.9102 0.3159 -0.2679
vn -0.8325 0.3802 0.4029
vn 0.4322 -0.0500 0.9004
vn -0.1059 -0.4496 -0.8869
vn -0.0525 0.9099 -0.4115
vn -0.3786 0.2958 -0.8770
vn -0.6747 0.7206 -0.1598
vn -0.1829 0.9617 -0.2040
vn 0.5982 0.6918 -0.4044
vn 0.1616 0.9815 0.1029
vn 0.1804 -0.9366 0.3003
vn -0.8327 0.5390 -0.1268
vn -0.9512 0.0932 -0.2943
vn -0.9397 0.3158 -0.1315
vn 0.9131 -0.2499 -0.3221
vn 0.3093 0.8809 -0.3583
vn 0.6067 -0.7827 0.1389
vn 0.5039 -0.8623 -0.0502
vn -0.1998 0.9704 0.1355
vn 0.3619 -0.9288 -0.0794
vn 0.9132 -0.4050 -0.0457
vn 0.9753 -0.0285 -0.2191
vn 0.6689 -0.7433 0.0080
vn 0.8101 -0.5819 0.0715
vn -0.3465 0.8402 0.4171
vn 0.9830 -0.1835 0.0067
vn 0.7065 0.7069 -0.0340
vn -0.7328 0.6651 0.1437
vn -0.8731 0.4863 -0.0347
vn 0.8864 -0.3356 0.3188
vn -0.2102 -0.8791 0.4279
vn -0.9701 0.2412 -0.0278
vn 0.5749 -0.3006 -0.7610
vn 0.3392 -0.5968 0.7271
vn 0.0737 0.2477 0.9660
vn 0.4098 0.6608 0.6288
vn 0.8787 0.1280 -0.4599
vn 0.1494 -0.9029 0.4031
vn -0.1205 -0.9717 0.2032
vn -0.0550 0.8005 0.5968
vn 0.5722 0.4825 0.6632
vn -0.7686 0.3380 -0.5431
vn -0.5732 0.3372 0.7468
vn -0.9670 0.2210 -0.1272
vn 0.8605 -0.3450 0.3749
vn -0.7112 0.6562 0.2523
vn 0.9987 0.0272 -0.0436
vn 0.2937 -0.9374 0.1870
vn -0.4359 0.5221 -0.7330
vn -0.0602 0.1497 0.9869
vn -0.1318 0.1377 0.9817
vn 0.5258 -0.0860 0.8462
vn -0.7655 -0.6246 -0.1544
vn 0.6038 -0.7933 0.0778
vn -0.3620 0.9121 0.1924
vn -0.7019 0.2942 0.6487
vn 0.4284 0.1291 0.8943
vn 0.1557 -0.1650 0.9739
vn 0.3039 -0.1784 -0.9359
vn 0.1841 -0.0728 0.9802
vn -0.9018 0.0128 0.4320
vn -0.0279 -0.0485 -0.9984
vn -0.0298 0.7321 -0.6805
vn -0.2971 -0.0638 0.9527
vn 0.2390 -0.8860 0.3975
vn 0.6368 -0.2552 0.7276
vn 0.2420 0.0250 -0.9699
vn 0.1753 0.0143 -0.9844
vn -0.8857 0.4126 0.2128
vn 0.7380 0.1293 0.6623
vn -0.0859 0.6342 0.7684
vn -0.4430 0.0974 0.8912
vn 0.8835 0.1790 0.4329
vn 0.0939 0.3887 -0.9166
vn 0.5789 -0.0455 -0.8141
vn 0.1805 -0.2685 0.9462
vn -0.7158 0.0541 -0.6962
vn -0.3749 0.6210 0.6883
vn 0.2062 -0.0957 0.9738
vn -0.1282 -0.9556 -0.2654
vn 0.5333 0.7789 0.3300
vn -0.7158 -0.0277 -0.6977
vn -0.1697 -0.5556 0.8139
vn -0.6665 0.1248 0.7350
vn 0.5826 -0.7608 -0.2858
vn -0.0250 -0.0973 0.9949
vn 0.3112 0.1414 0.9398
vn 0.6177 -0.4240 0.6624
vn 0.1416 0.1202 0.9826
vn 0.1614 0.8816 0.4436
vn -0.7667 -0.0426 -0.6406
vn -0.1254 -0.5737 0.8094
vn 0.7007 0.0161 -0.7133
vn -0.9292 -0.3656 -0.0542
vn -0.9164 0.1762 0.3595
vn 0.6432 0.0019 0.7657
vn 0.2768 -0.5002 0.8205
vn 0.2397 0.2027 0.9495
vn 0.2858 -0.9358 0.2066
vn 0.3742 -0.8663 0.3310
vn -0.5228 -0.2581 0.8124
vn 0.9403 -0.3399 0.0148
vn -0.5674 0.7029 0.4289
vn -0.0004 -0.9319 0.3626
vn -0.4899 -0.8626 -0.1259
vn -0.8545 0.3059 0.4200
vn 0.1375 0.1645 0.9767
vn 0.9183 -0.2435 0.3123
vn 0.1524 0.1614 0.9750
vn -0.0619 0.3433 0.9372
vn 0.0413 0.4862 0.8729
vn 0.9107 0.2648 0.3169
vn -0.1658 0.3162 0.9341
vn 0.2421 0.0737 0.9675
vn 0.6851 -0.1782 0.7063
vn -0.9098 0.0487 0.4123
vn 0.2252 0.8141 0.5353
vn -0.0966 -0.1288 0.9870
vn 0.2888 -0.1035 0.9518
vn -0.2041 -0.5054 0.8384
vn -0.1084 0.5156 0.8500
vn -0.2109 0.5772 0.7889
vn -0.4159 0.2626 0.8706
vn 0.4379 0.3837 0.8130
vn 0.2779 -0.1184 0.9533
vn -0.3545 0.0536 0.9335
vn 0.1640 -0.1254 0.9785
vn 0.1464 -0.0029 0.9892
vn -0.3582 -0.2452 0.9009
vn 0.0611 0.0033 0.9981
vt 0.578058 0.453972
vt 0.435163 0.479982
vt 0.541271 0.415440
vt 0.098906 0.796077
vt 0.098906 0.967100
vt 0.010522 0.893181
vt 0.516576 0.554616
vt 0.636744 0.480659
vt 0.602608 0.516263
vt 0.669098 0.609247
vt 0.698248 0.350604
vt 0.766414 0.363787
vt 0.646078 0.454280
vt 0.603650 0.381986
vt 0.375283 0.325201
vt 0.445271 0.563740
vt 0.710133 0.309098
vt 0.561940 0.631307
vt 0.017059 0.840479
vt 0.591946 0.756702
vt 0.706685 0.733144
vt 0.519781 0.733144
vt 0.715067 0.752566
vt 0.386698 0.476256
vt 0.667929 0.318846
vt 0.487517 0.318846
vt 0.489197 0.342405
vt 0.881096 0.132459
vt 0.939815 0.064528
vt 0.898050 0.270757
vt 0.660595 0.337915
vt 0.466751 0.331021
vt 0.455913 0.174249
vt 0.307660 0.135256
vt 0.433073 0.152237
vt 0.627352 0.974422
vt 0.645414 0.955727
vt 0.585438 0.982753
vt 0.601444 0.959154
vt 0.593013 0.899675
vt 0.726158 0.908913
vt 0.683130 0.899675
vt 0.372217 0.365701
vt 0.343095 0.457408
vt 0.317315 0.431392
vt 0.437155 0.643327
vt 0.245619 0.529557
vt 0.646886 0.107095
vt 0.672138 0.193745
vt 0.672138 0.075954
vt 0.785954 0.529356
vt 0.804806 0.560799
vt 0.817761 0.417141
vt 0.684377 0.986596
vt 0.027803 0.794070
vt 0.747896 0.955727
vt 0.150777 0.554427
vt 0.242192 0.600248
vt 0.119108 0.598079
vt 0.202692 0.506585
vt 0.265572 0.734881
vt 0.240954 0.742080
vt 0.471801 0.135256
vt 0.797664 0.418147
vt 0.766414 0.647847
vt 0.221964 0.436370
vt 0.090447 0.298615
vt 0.041997 0.279041
vt 0.015572 0.291549
vt 0.265572 0.566636
vt 0.765572 0.551976
vt 0.891048 0.039367
vt 0.910850 0.017465
vt 0.189197 0.033314
vt 0.065455 0.000406
vt 0.130936 0.105901
vt 0.155303 0.465169
vt 0.245370 0.279041
vt 0.179096 0.334333
vt 0.213838 0.317078
vt 0.286067 0.004487
vt 0.817761 0.581235
vt 0.704625 0.923260
vt 0.747054 0.928154
vt 0.648082 0.937043
vt 0.918780 0.423196
vt 0.928919 0.459970
vt 0.891400 0.481456
vt 0.076230 0.321334
vt 0.013311 0.490745
vt 0.034848 0.501434
vt 0.002946 0.540160
vt 0.554346 0.097837
vt 0.656145 0.090762
vt 0.516475 0.067162
vt 0.015846 0.340780
vt 0.038300 0.050432
vt 0.939815 0.321352
vt 0.904743 0.409799
vt 0.136756 0.443625
vt 0.015275 0.565800
vt 0.551484 0.047522
vt 0.048123 0.113115
vt 0.600162 0.245147
vt 0.716047 0.212373
vt 0.491774 0.183561
vt 0.163890 0.448822
vt 0.826935 0.055492
vt 0.545034 0.110141
vt 0.545034 0.175873
vt 0.526824 0.152918
vt 0.419084 0.047522
vt 0.809827 0.232010
vt 0.360537 0.162063
vt 0.463021 0.247390
vt 0.533942 0.266143
vt 0.065849 0.477588
vt 0.036930 0.546240
vt 0.514731 0.109261
vt 0.216751 0.102486
vt 0.438135 0.106824
vt 0.720118 0.283821
vt 0.947391 0.360032
vt 0.985339 0.392596
vt 0.961180 0.494737
vt 0.958905 0.333469
vt 0.300407 0.016335
vt 0.295283 0.066326
vt 0.432844 0.009314
vt 0.243876 0.162063
vt 0.136490 0.197883
vt 0.204171 0.247443
vt 0.353874 0.270555
vt 0.844347 0.391018
vt 0.993687 0.342122
vt 0.217749 0.086562
vt 0.013047 0.227136
vt 0.123852 0.247329
vt 0.769464 0.108496
vt 0.993687 0.495255
vt 0.973520 0.518684
vt 0.062357 0.520020
vt 0.784313 0.333601
vt 0.327862 0.335093
vt 0.205769 0.335093
vt 0.218157 0.367587
vt 0.088024 0.356471
vt 0.873505 0.555240
vt 0.195707 0.362562
vt 0.968944 0.767262
vt 0.939815 0.665640
vt 0.987795 0.752082
vt 0.987795 0.649997
vt 0.951244 0.614541
vt 0.342706 0.693339
vt 0.394425 0.674032
vt 0.302609 0.657595
vt 0.456799 0.032301
vt 0.646886 0.000406
vt 0.569392 0.683014
vt 0.798401 0.650438
vt 0.433742 0.681124
vt 0.088528 0.563892
vt 0.111532 0.565770
vt 0.463247 0.704052
vt 0.397846 0.758530
vt 0.432911 0.769663
vt 0.786981 0.286014
vt 0.447121 0.315646
vt 0.849501 0.497144
vt 0.601253 0.641348
vt 0.843490 0.637094
vt 0.867645 0.692526
vt 0.763599 0.710066
vt 0.117163 0.199431
vt 0.062780 0.169424
vt 0.768320 0.049826
vt 0.570987 0.314312
vt 0.111532 0.444346
vt 0.917059 0.630074
vt 0.805298 0.584552
vt 0.695707 0.836942
vt 0.670981 0.826564
vt 0.677700 0.849377
vt 0.911813 0.582645
vt 0.510519 0.829764
vt 0.568300 0.854760
vt 0.760860 0.211146
vt 0.509680 0.763201
vt 0.657828 0.786613
vt 0.548567 0.793258
vt 0.635678 0.763201
vt 0.774922 0.791500
vt 0.916309 0.721224
vt 0.974396 0.855498
vt 0.880933 0.771692
vt 0.406145 0.657595
vt 0.533029 0.872458
vt 0.471596 0.950306
vt 0.361899 0.717940
vt 0.442462 0.939821
vt 0.409512 0.964126
vt 0.999579 0.524370
vt 0.954125 0.185019
vt 0.981902 0.193064
vt 0.981902 0.033755
vt 0.310710 0.400081
vt 0.319440 0.373274
vt 0.329545 0.390300
vt 0.299198 0.845454
vt 0.729132 0.088508
vt 0.665564 0.864070
vt 0.776404 0.830706
vt 0.659512 0.897281
vt 0.765497 0.298962
vt 0.204125 0.373274
vt 0.475201 0.826564
vt 0.241196 0.810461
vt 0.521838 0.980097
vt 0.566919 0.045085
vt 0.694865 0.045085
vt 0.675267 0.061332
vt 0.320247 0.327782
vt 0.757127 0.908800
vt 0.718547 0.879078
vt 0.816327 0.887988
vt 0.955736 0.021996
vt 0.973881 0.010154
vt 0.373768 0.885046
vt 0.954614 0.216491
vt 0.717593 0.205333
vt 0.890177 0.923061
vt 0.115167 0.668994
vt 0.169539 0.643748
vt 0.000421 0.641348
vt 0.782552 0.936283
vt 0.999579 0.966647
vt 0.150103 0.689100
vt 0.155251 0.798104
vt 0.233430 0.771900
vt 0.202311 0.656623
vt 0.204901 0.827792
vt 0.854877 0.933303
vt 0.892573 0.996344
vt 0.273613 0.927878
vt 0.358954 0.999594
vt 0.134986 0.916335
vt 0.201562 0.963423
s 0
usemtl Material_0
f 1/1/1 8/2/1 3/3/1
f 38/4/2 3/5/2 8/6/2
f 8/2/3 1/1/3 4/7/3
f 25/8/4 2/9/4 1/1/4
f 2/9/5 5/10/5 4/7/5
f 2/9/6 4/7/6 1/1/6
f 1/1/7 24/11/7 22/12/7
f 21/13/8 1/1/8 22/12/8
f 24/11/9 1/1/9 23/14/9
f 3/3/10 23/14/10 1/1/10
f 38/15/11 23/14/11 3/3/11
f 7/16/12 8/2/12 4/7/12
f 6/17/13 22/12/13 24/11/13
f 5/10/14 49/18/14 4/7/14
f 17/19/15 38/4/15 8/6/15
f 7/16/16 4/7/16 49/18/16
f 6/20/17 11/21/17 22/22/17
f 6/20/18 12/23/18 11/21/18
f 21/13/19 25/8/19 1/1/19
f 7/16/20 17/24/20 8/2/20
f 22/25/21 11/26/21 26/27/21
f 9/28/22 23/29/22 38/30/22
f 22/25/23 26/27/23 10/31/23
f 11/26/24 12/32/24 26/27/24
f 27/33/25 12/34/25 6/35/25
f 31/36/26 13/37/26 14/38/26
f 15/39/27 14/38/27 13/37/27
f 32/40/28 15/41/28 13/42/28
f 13/43/29 18/44/29 32/45/29
f 49/18/30 19/46/30 7/16/30
f 16/47/31 17/24/31 7/16/31
f 24/48/32 23/49/32 27/50/32
f 18/44/33 17/24/33 16/47/33
f 32/45/34 18/44/34 16/47/34
f 7/16/35 19/46/35 16/47/35
f 20/51/36 21/52/36 22/53/36
f 13/37/37 31/36/37 38/54/37
f 38/4/38 17/19/38 18/55/38
f 38/54/39 18/56/39 13/37/39
f 20/57/40 27/58/40 23/59/40
f 25/8/41 5/10/41 2/9/41
f 32/45/42 16/47/42 30/60/42
f 27/58/43 26/61/43 12/62/43
f 6/35/44 24/63/44 27/33/44
f 20/51/45 22/53/45 10/64/45
f 5/10/46 25/8/46 58/65/46
f 30/60/47 55/66/47 32/45/47
f 35/67/48 36/68/48 34/69/48
f 27/58/49 10/70/49 26/61/49
f 10/70/50 27/58/50 20/57/50
f 29/71/51 21/52/51 20/51/51
f 23/29/52 29/72/52 20/73/52
f 28/74/53 25/75/53 93/76/53
f 23/29/54 9/28/54 29/72/54
f 55/66/55 30/60/55 33/77/55
f 16/78/56 59/79/56 30/80/56
f 35/67/57 59/79/57 16/78/57
f 28/74/58 58/81/58 25/75/58
f 21/52/59 29/71/59 25/82/59
f 31/83/60 14/84/60 15/41/60
f 38/85/61 31/83/61 15/41/61
f 38/85/62 15/41/62 32/40/62
f 30/86/63 59/87/63 33/88/63
f 35/67/64 34/69/64 47/89/64
f 35/90/65 37/91/65 36/92/65
f 58/93/66 28/94/66 46/95/66
f 37/91/67 35/90/67 16/96/67
f 29/97/68 93/76/68 25/75/68
f 32/98/69 55/99/69 38/30/69
f 59/79/70 35/67/70 40/100/70
f 34/101/71 36/92/71 37/91/71
f 46/95/72 28/94/72 48/102/72
f 93/76/73 29/97/73 68/103/73
f 43/104/74 16/105/74 19/106/74
f 39/107/75 59/79/75 40/100/75
f 40/100/76 35/67/76 47/89/76
f 9/28/77 68/108/77 29/72/77
f 47/109/78 34/110/78 44/111/78
f 48/102/79 45/112/79 46/95/79
f 9/28/80 38/30/80 92/113/80
f 49/114/81 41/115/81 19/106/81
f 42/116/82 43/104/82 19/106/82
f 57/117/83 37/91/83 16/96/83
f 37/91/84 44/118/84 34/101/84
f 47/109/85 44/111/85 37/119/85
f 45/112/86 66/120/86 46/95/86
f 66/120/87 52/121/87 46/95/87
f 46/95/88 52/121/88 58/93/88
f 42/116/89 19/106/89 41/115/89
f 43/104/90 56/122/90 16/105/90
f 47/123/91 61/124/91 40/125/91
f 61/124/92 47/123/92 37/126/92
f 48/127/93 67/128/93 45/129/93
f 5/130/94 58/131/94 91/132/94
f 49/114/95 5/130/95 91/132/95
f 49/114/96 76/133/96 41/115/96
f 38/30/97 55/99/97 54/134/97
f 37/126/98 50/135/98 61/124/98
f 28/74/99 67/128/99 48/127/99
f 51/136/100 67/128/100 28/74/100
f 52/137/101 53/138/101 58/131/101
f 28/74/102 93/76/102 51/136/102
f 54/134/103 92/113/103 38/30/103
f 33/88/104 54/134/104 55/99/104
f 9/28/105 84/139/105 68/108/105
f 84/139/106 9/28/106 92/113/106
f 42/116/107 56/122/107 43/104/107
f 60/140/108 39/141/108 40/125/108
f 60/140/109 40/125/109 61/124/109
f 57/117/110 50/142/110 37/91/110
f 91/132/111 58/131/111 53/138/111
f 74/143/112 92/113/112 54/134/112
f 59/144/113 39/145/113 64/146/113
f 56/147/114 57/117/114 16/96/114
f 59/87/115 64/148/115 33/88/115
f 39/145/116 60/149/116 64/146/116
f 60/150/117 61/151/117 64/152/117
f 63/153/118 61/151/118 50/154/118
f 50/155/119 62/156/119 63/157/119
f 65/158/120 45/129/120 67/128/120
f 66/159/121 45/129/121 65/158/121
f 52/160/122 66/161/122 67/162/122
f 63/153/123 64/152/123 61/151/123
f 62/163/124 50/142/124 78/164/124
f 53/165/125 81/166/125 91/167/125
f 76/133/126 49/114/126 91/132/126
f 87/168/127 92/113/127 74/143/127
f 42/116/128 41/115/128 99/169/128
f 69/170/129 54/134/129 33/88/129
f 69/170/130 33/88/130 64/148/130
f 50/142/131 57/117/131 78/164/131
f 65/171/132 67/162/132 66/161/132
f 53/165/133 52/160/133 67/162/133
f 69/172/134 88/173/134 54/174/134
f 107/175/135 68/103/135 83/176/135
f 68/108/136 84/139/136 83/177/136
f 42/116/137 77/178/137 56/122/137
f 56/147/138 71/179/138 57/117/138
f 69/172/139 71/180/139 88/173/139
f 64/181/140 71/180/140 69/172/140
f 70/182/141 72/183/141 73/184/141
f 64/181/142 63/185/142 71/180/142
f 71/179/143 78/164/143 57/117/143
f 72/183/144 80/186/144 73/184/144
f 73/184/145 80/186/145 89/187/145
f 53/165/146 67/162/146 81/166/146
f 93/76/147 68/103/147 107/175/147
f 84/139/148 92/113/148 94/188/148
f 74/189/149 75/190/149 87/191/149
f 74/189/150 85/192/150 75/190/150
f 99/169/151 41/115/151 76/133/151
f 74/193/152 54/174/152 88/173/152
f 56/194/153 77/195/153 96/196/153
f 71/180/154 56/194/154 88/173/154
f 63/157/155 62/156/155 78/197/155
f 79/198/156 89/187/156 80/186/156
f 83/199/157 79/198/157 80/186/157
f 81/166/158 67/162/158 51/200/158
f 82/201/159 107/202/159 83/199/159
f 56/194/160 96/196/160 88/173/160
f 71/180/161 63/185/161 78/203/161
f 102/204/162 80/205/162 72/206/162
f 73/207/163 97/208/163 70/209/163
f 80/186/164 82/201/164 83/199/164
f 81/166/165 51/200/165 90/210/165
f 91/167/166 81/166/166 90/210/166
f 105/211/167 83/177/167 84/139/167
f 85/212/168 86/213/168 75/214/168
f 86/213/169 85/212/169 74/193/169
f 87/168/170 86/215/170 92/113/170
f 88/173/171 96/196/171 74/193/171
f 73/207/172 89/216/172 97/208/172
f 82/201/173 80/186/173 95/217/173
f 107/218/174 90/210/174 51/200/174
f 83/199/175 105/219/175 79/198/175
f 75/220/176 86/221/176 87/222/176
f 76/133/177 91/132/177 103/223/177
f 94/224/178 92/225/178 98/226/178
f 92/225/179 86/213/179 98/226/179
f 86/213/180 74/193/180 96/196/180
f 97/227/181 72/206/181 70/228/181
f 51/136/182 93/76/182 107/175/182
f 91/167/183 90/210/183 103/229/183
f 105/211/184 84/139/184 94/188/184
f 99/169/185 77/178/185 42/116/185
f 97/227/186 102/204/186 72/206/186
f 95/230/187 80/205/187 102/204/187
f 76/133/188 103/223/188 99/169/188
f 98/226/189 86/213/189 96/196/189
f 94/188/190 106/231/190 105/211/190
f 98/226/191 96/196/191 100/232/191
f 96/196/192 77/195/192 100/232/192
f 89/233/193 102/234/193 97/235/193
f 94/224/194 98/226/194 106/236/194
f 99/237/195 100/232/195 77/195/195
f 79/238/196 102/234/196 89/233/196
f 105/239/197 102/234/197 79/238/197
f 82/240/198 95/241/198 104/242/198
f 98/226/199 100/232/199 101/243/199
f 102/234/200 104/242/200 95/241/200
f 105/239/201 104/242/201 102/234/201
f 82/240/202 104/242/202 107/218/202
f 99/237/203 108/244/203 100/232/203
f 100/232/204 108/244/204 101/243/204
f 108/245/205 99/246/205 103/229/205
f 98/226/206 101/243/206 106/236/206
f 104/242/207 105/239/207 106/247/207
f 108/245/208 103/229/208 90/210/208
f 108/245/209 90/210/209 107/218/209
f 106/247/210 101/248/210 104/242/210
f 107/218/211 104/242/211 108/245/211
f 101/248/212 108/245/212 104/242/212
